<svg xmlns="http://www.w3.org/2000/svg" xmlns:xlink="http://www.w3.org/1999/xlink" width="3779" zoomAndPan="magnify" viewBox="0 0 2835 2834.999876" height="3779" preserveAspectRatio="xMidYMid meet" version="1.0"><defs><clipPath id="b39747c715"><path d="M 695 1774 L 2698.480469 1774 L 2698.480469 2798 L 695 2798 Z M 695 1774 " clip-rule="nonzero"/></clipPath><clipPath id="838d7cc95d"><path d="M 1417 2051 L 2698.480469 2051 L 2698.480469 2834.707031 L 1417 2834.707031 Z M 1417 2051 " clip-rule="nonzero"/></clipPath><clipPath id="3e238b77c5"><path d="M 136.480469 99 L 1473 99 L 1473 872 L 136.480469 872 Z M 136.480469 99 " clip-rule="nonzero"/></clipPath><clipPath id="688f45056c"><path d="M 695 2378 L 1419 2378 L 1419 2834.707031 L 695 2834.707031 Z M 695 2378 " clip-rule="nonzero"/></clipPath><clipPath id="989a871b0e"><path d="M 136.480469 861 L 165 861 L 165 1921 L 136.480469 1921 Z M 136.480469 861 " clip-rule="nonzero"/></clipPath><clipPath id="5a1bdedd2d"><path d="M 1813 91.207031 L 2681 91.207031 L 2681 591 L 1813 591 Z M 1813 91.207031 " clip-rule="nonzero"/></clipPath></defs><rect x="-283.5" width="3402" fill="#ffffff" y="-283.499988" height="3401.999851" fill-opacity="1"/><rect x="-283.5" width="3402" fill="#ffffff" y="-283.499988" height="3401.999851" fill-opacity="1"/><rect x="-283.5" width="3402" fill="#ffffff" y="-283.499988" height="3401.999851" fill-opacity="1"/><path fill="#39302a" d="M 1388.582031 2461.871094 C 1388.582031 2461.871094 1388.070312 2454.558594 1387.191406 2442.707031 C 1366.050781 2436.746094 1347.652344 2427.746094 1343.699219 2436.78125 C 1338.726562 2448.191406 1347.90625 2460.847656 1357.929688 2467.613281 C 1372.269531 2477.234375 1382.914062 2481.730469 1395.3125 2481.039062 L 1395.679688 2490.253906 L 1420.917969 2500.128906 L 1439.207031 2493.109375 L 1439.207031 2486.378906 L 1437.378906 2469.332031 Z M 1388.582031 2461.871094 " fill-opacity="1" fill-rule="nonzero"/><path fill="#39302a" d="M 1281.953125 2509.054688 C 1281.953125 2509.054688 1281.953125 2505.871094 1281.734375 2500.128906 C 1275.699219 2500.128906 1217.648438 2476.722656 1223.757812 2507.664062 C 1229.207031 2535.242188 1286.929688 2537.546875 1286.929688 2537.546875 L 1295.488281 2545.152344 L 1325.082031 2543.324219 L 1326.507812 2540.179688 L 1325.667969 2518.5625 Z M 1281.953125 2509.054688 " fill-opacity="1" fill-rule="nonzero"/><path fill="#39302a" d="M 2168.484375 1266.511719 L 2168.304688 1266.511719 C 2168.625 1265.03125 2168.796875 1263.53125 2168.8125 1262.015625 C 2168.828125 1260.503906 2168.695312 1259 2168.402344 1257.515625 C 2168.113281 1256.027344 2167.679688 1254.582031 2167.09375 1253.183594 C 2166.511719 1251.785156 2165.792969 1250.460938 2164.9375 1249.210938 C 2152.683594 1235.75 2120.824219 1236.371094 2101.621094 1243.101562 C 2099.992188 1241.496094 2098.117188 1240.277344 2095.984375 1239.445312 C 2085.597656 1235.605469 2073.34375 1242.738281 2068.660156 1255.390625 C 2067.859375 1257.355469 2067.316406 1259.390625 2067.027344 1261.496094 C 2066.738281 1263.597656 2066.710938 1265.703125 2066.953125 1267.8125 C 2067.191406 1269.921875 2067.6875 1271.96875 2068.441406 1273.949219 C 2069.195312 1275.933594 2070.183594 1277.796875 2071.40625 1279.53125 C 2068.773438 1293.246094 2060.761719 1331.101562 2049.96875 1349.867188 C 2052.578125 1351.644531 2055.269531 1353.277344 2058.046875 1354.773438 C 2060.828125 1356.265625 2063.675781 1357.609375 2066.597656 1358.804688 C 2069.515625 1360 2072.492188 1361.039062 2075.519531 1361.921875 C 2078.550781 1362.804688 2081.617188 1363.527344 2084.71875 1364.085938 C 2087.824219 1364.648438 2090.949219 1365.046875 2094.097656 1365.277344 C 2097.242188 1365.511719 2100.394531 1365.578125 2103.546875 1365.480469 C 2106.699219 1365.382812 2109.839844 1365.121094 2112.964844 1364.691406 C 2116.089844 1364.265625 2119.1875 1363.675781 2122.25 1362.921875 L 2133.222656 1364.570312 C 2133.222656 1364.570312 2135.929688 1351.621094 2125.726562 1334.210938 C 2125.726562 1334.210938 2121.335938 1330.554688 2121.152344 1327.703125 C 2120.128906 1318.375 2122.835938 1307.804688 2131.285156 1307.4375 C 2132.292969 1307.457031 2133.273438 1307.628906 2134.226562 1307.953125 C 2135.179688 1308.28125 2136.0625 1308.742188 2136.871094 1309.339844 C 2137.683594 1309.941406 2138.382812 1310.648438 2138.96875 1311.46875 C 2139.558594 1312.285156 2140.007812 1313.175781 2140.320312 1314.132812 C 2147.378906 1306.816406 2156.230469 1282.421875 2156.230469 1282.421875 C 2157 1281.871094 2157.660156 1281.289062 2158.316406 1280.738281 C 2158.582031 1283.503906 2158.4375 1286.246094 2157.878906 1288.96875 C 2160.59375 1285.75 2162.851562 1282.238281 2164.652344 1278.433594 C 2166.449219 1274.625 2167.726562 1270.652344 2168.484375 1266.511719 Z M 2168.484375 1266.511719 " fill-opacity="1" fill-rule="nonzero"/><path fill="#39302a" d="M 2204.550781 2119.304688 C 2204.550781 2125.449219 2204.550781 2128.816406 2204.550781 2128.816406 L 2159.195312 2138.472656 L 2159.195312 2138.105469 L 2158.351562 2159.5 L 2159.78125 2162.648438 L 2189.300781 2164.476562 L 2197.820312 2156.867188 C 2197.820312 2156.867188 2255.359375 2154.5625 2260.773438 2127.097656 C 2266.261719 2098.203125 2215.964844 2116.816406 2204.550781 2119.304688 Z M 2204.550781 2119.304688 " fill-opacity="1" fill-rule="nonzero"/><path fill="#39302a" d="M 2097.15625 2062.429688 C 2096.242188 2074.132812 2095.730469 2081.304688 2095.730469 2081.304688 L 2047.738281 2089.351562 C 2047.71875 2089.226562 2047.71875 2089.105469 2047.738281 2088.984375 L 2045.945312 2105.808594 L 2045.945312 2112.503906 L 2064.050781 2119.523438 L 2089.21875 2109.648438 L 2089.585938 2100.503906 C 2101.949219 2101.199219 2112.59375 2096.847656 2126.859375 2087.082031 C 2136.84375 2080.351562 2145.988281 2067.769531 2141.015625 2056.394531 C 2137.0625 2047.363281 2118.335938 2056.542969 2097.15625 2062.429688 Z M 2097.15625 2062.429688 " fill-opacity="1" fill-rule="nonzero"/><path fill="#0070ce" d="M 1278.371094 1952.300781 C 1278.371094 1949.777344 1278.371094 1947.289062 1278.371094 1944.765625 C 1257.777344 1957.972656 1226.867188 1970.371094 1184.726562 1989.132812 C 1170.316406 2000.105469 1135.34375 2006.03125 1136.261719 2003.761719 C 1137.175781 2001.496094 1156.34375 1994.984375 1156.34375 1994.984375 C 1156.34375 1994.984375 1147.234375 1996.046875 1140.027344 1996.519531 L 1051.46875 2047.726562 L 805.695312 1905.851562 L 805.695312 1947.253906 L 1051.433594 2087.886719 Z M 1278.371094 1952.300781 " fill-opacity="1" fill-rule="nonzero"/><path fill="#0070ce" d="M 1279.136719 1986.242188 C 1279.136719 1985.730469 1279.136719 1985.21875 1279.136719 1984.671875 L 1279.136719 1981.011719 L 1051.433594 2113.671875 L 801.855469 1972.417969 L 801.855469 2073.621094 L 1049.53125 2214.804688 L 1270.140625 2087.265625 L 1270.140625 2085.910156 C 1270.394531 2083.09375 1270.613281 2080.351562 1270.871094 2077.683594 C 1271.382812 2072.304688 1271.894531 2067.183594 1272.445312 2062.355469 C 1276.101562 2028.453125 1280.199219 2007.824219 1280.199219 2007.824219 C 1279.808594 2000.65625 1279.457031 1993.460938 1279.136719 1986.242188 Z M 1279.136719 1986.242188 " fill-opacity="1" fill-rule="nonzero"/><path fill="#20d1bc" d="M 1998.976562 1475.941406 L 1998.976562 1692.90625 L 1830.714844 1789.648438 L 1830.675781 1573.160156 Z M 1998.976562 1475.941406 " fill-opacity="1" fill-rule="nonzero"/><path fill="#1ab7a0" d="M 1761.726562 1605.015625 L 1761.726562 1749.820312 L 1830.714844 1789.648438 L 1830.675781 1573.160156 L 1660.585938 1475.757812 L 1660.585938 1545.875 Z M 1761.726562 1605.015625 " fill-opacity="1" fill-rule="nonzero"/><path fill="#f15a57" d="M 1593.425781 1702.234375 L 1593.460938 1918.726562 L 1761.726562 1821.984375 L 1761.726562 1605.015625 Z M 1593.425781 1702.234375 " fill-opacity="1" fill-rule="nonzero"/><path fill="#f14134" d="M 1593.460938 1918.726562 L 1593.460938 1702.234375 L 1423.332031 1604.871094 L 1423.332031 1705.417969 C 1425.519531 1706.929688 1427.4375 1708.726562 1429.085938 1710.816406 C 1430.730469 1712.90625 1432.03125 1715.1875 1432.988281 1717.667969 C 1463.898438 1729.996094 1471.03125 1785.808594 1457.679688 1840.308594 Z M 1593.460938 1918.726562 " fill-opacity="1" fill-rule="nonzero"/><path fill="#e2e1e0" d="M 2204.550781 2119.304688 C 2204.550781 2120.804688 2204.550781 2122.085938 2204.550781 2123.253906 C 2204.515625 2122.121094 2204.550781 2120.953125 2204.550781 2119.304688 Z M 2204.550781 2119.304688 " fill-opacity="1" fill-rule="nonzero"/><path fill="#e2e1e0" d="M 2096.863281 2066.269531 C 2096.863281 2065.0625 2096.863281 2063.855469 2097.15625 2062.613281 C 2097.046875 2063.855469 2096.9375 2065.0625 2096.863281 2066.269531 Z M 2096.863281 2066.269531 " fill-opacity="1" fill-rule="nonzero"/><path fill="#e2e1e0" d="M 2096.863281 2066.269531 C 2096.460938 2071.355469 2096.167969 2075.339844 2095.984375 2077.9375 C 2096.167969 2075.339844 2096.386719 2071.355469 2096.863281 2066.269531 Z M 2096.863281 2066.269531 " fill-opacity="1" fill-rule="nonzero"/><path fill="#e2e1e0" d="M 2287.953125 2073.660156 C 2271.164062 2051.714844 2242.375 2034.046875 2207.039062 2021.539062 C 2205.46875 2066.855469 2204.808594 2102.992188 2204.550781 2119.304688 C 2215.964844 2116.816406 2266.261719 2098.203125 2260.554688 2127.097656 C 2255.140625 2154.5625 2197.601562 2156.867188 2197.601562 2156.867188 L 2189.078125 2164.476562 L 2159.558594 2162.648438 L 2158.132812 2159.503906 L 2158.976562 2138.105469 C 2148.925781 2094.46875 2143.109375 2050.273438 2141.527344 2005.519531 C 2128.578125 2003.617188 2115.335938 2002.300781 2101.875 2001.605469 C 2099.9375 2025.964844 2098.214844 2047.765625 2097.121094 2062.359375 C 2118.445312 2056.394531 2137.027344 2047.214844 2141.015625 2056.324219 C 2145.988281 2067.699219 2136.84375 2080.28125 2126.859375 2087.007812 C 2112.59375 2096.628906 2101.949219 2101.128906 2089.585938 2100.433594 L 2089.21875 2109.578125 L 2064.050781 2119.453125 L 2045.945312 2112.429688 L 2045.945312 2105.734375 L 2047.738281 2088.910156 C 2047.71875 2089.035156 2047.71875 2089.15625 2047.738281 2089.277344 C 2044.480469 2060.574219 2042.796875 2031.773438 2042.691406 2002.886719 C 2031.128906 2003.984375 2019.609375 2005.554688 2008.230469 2007.640625 C 1897.542969 2028.234375 1843.296875 2091.070312 1887.082031 2148.015625 C 1930.867188 2204.964844 2056.078125 2234.480469 2166.765625 2213.851562 C 2277.453125 2193.222656 2331.703125 2130.605469 2287.953125 2073.660156 Z M 2287.953125 2073.660156 " fill-opacity="1" fill-rule="nonzero"/><path fill="#e2e1e0" d="M 1387.191406 2442.816406 C 1387.449219 2446.21875 1387.667969 2449.253906 1387.851562 2451.851562 C 1387.667969 2449.144531 1387.449219 2446.144531 1387.191406 2442.816406 Z M 1387.191406 2442.816406 " fill-opacity="1" fill-rule="nonzero"/><path fill="#e2e1e0" d="M 1441.621094 2414.871094 C 1440.855469 2433.160156 1439.5 2451.449219 1437.378906 2469.371094 L 1439.207031 2486.414062 L 1439.207031 2493.144531 L 1420.917969 2500.167969 L 1395.679688 2490.289062 L 1395.3125 2481.074219 C 1382.914062 2481.769531 1372.269531 2477.417969 1357.929688 2467.652344 C 1347.90625 2460.882812 1338.726562 2448.230469 1343.699219 2436.816406 C 1347.652344 2427.785156 1366.050781 2436.816406 1387.191406 2442.742188 C 1386.386719 2431.40625 1385.21875 2415.894531 1383.902344 2398.121094 C 1370.34375 2395.46875 1356.6875 2393.519531 1342.933594 2392.269531 C 1341.074219 2434.910156 1335.320312 2477.023438 1325.667969 2518.601562 L 1326.507812 2540.214844 L 1325.082031 2543.363281 L 1295.488281 2545.191406 L 1286.929688 2537.582031 C 1286.929688 2537.582031 1229.207031 2535.277344 1223.757812 2507.699219 C 1223.496094 2506.335938 1223.386719 2504.957031 1223.429688 2503.566406 C 1223.429688 2479.136719 1275.992188 2500.167969 1281.734375 2500.167969 C 1281.296875 2483.011719 1280.089844 2442.265625 1277.820312 2391.390625 C 1262.40625 2392.378906 1247.105469 2394.269531 1231.914062 2397.058594 C 1121.226562 2417.613281 1066.980469 2480.488281 1110.765625 2537.4375 C 1154.550781 2594.382812 1279.761719 2623.863281 1390.449219 2603.273438 C 1501.136719 2582.679688 1555.382812 2519.84375 1511.636719 2462.894531 C 1496.492188 2443.328125 1471.984375 2427.015625 1441.621094 2414.871094 Z M 1441.621094 2414.871094 " fill-opacity="1" fill-rule="nonzero"/><path fill="#e2e1e0" d="M 1281.773438 2501.082031 C 1281.773438 2503.421875 1281.773438 2505.285156 1281.773438 2506.605469 C 1281.882812 2505.285156 1281.808594 2503.421875 1281.773438 2501.082031 Z M 1281.773438 2501.082031 " fill-opacity="1" fill-rule="nonzero"/><path fill="#e2e1e0" d="M 1388.328125 2458.617188 C 1388.328125 2457.519531 1388.328125 2456.128906 1388.035156 2454.445312 C 1388.179688 2456.128906 1388.253906 2457.445312 1388.328125 2458.617188 Z M 1388.328125 2458.617188 " fill-opacity="1" fill-rule="nonzero"/><path fill="#e2e1e0" d="M 1281.917969 2506.894531 C 1281.917969 2508.285156 1281.917969 2509.054688 1281.917969 2509.054688 C 1281.917969 2509.054688 1281.953125 2508.285156 1281.917969 2506.894531 Z M 1281.917969 2506.894531 " fill-opacity="1" fill-rule="nonzero"/><path fill="#eb8400" d="M 1438.914062 2127.097656 C 1464.703125 2024.136719 1448.171875 1983.246094 1448.171875 1983.246094 L 1447.949219 1983.246094 C 1441.660156 2001.53125 1419.089844 2019.601562 1392.496094 2030.097656 C 1384.828125 2033.246094 1376.914062 2035.574219 1368.761719 2037.082031 C 1360.609375 2038.589844 1352.390625 2039.25 1344.101562 2039.058594 C 1325.917969 2064.3125 1310.457031 2091.132812 1297.71875 2119.523438 C 1296.109375 2123.183594 1294.5 2127.242188 1293.074219 2131.121094 C 1275.882812 2177.386719 1281.296875 2284.371094 1281.296875 2284.371094 C 1281.296875 2284.371094 1305.878906 2454.703125 1299.914062 2512.859375 L 1307.046875 2514.429688 L 1308.253906 2514.6875 L 1319.449219 2517.101562 L 1325.777344 2518.492188 C 1325.777344 2518.492188 1359.683594 2388.355469 1335.066406 2243.992188 L 1336.96875 2238.761719 L 1339.457031 2231.773438 L 1341.359375 2226.324219 L 1344.761719 2216.523438 L 1346.480469 2211.4375 C 1348.089844 2206.648438 1349.84375 2201.453125 1351.675781 2195.894531 C 1352.660156 2192.96875 1353.613281 2189.96875 1354.636719 2186.859375 C 1354.855469 2186.164062 1355.113281 2185.472656 1355.332031 2184.738281 C 1355.550781 2184.007812 1355.84375 2183.167969 1356.0625 2182.433594 C 1358.40625 2175.121094 1360.78125 2167.804688 1363.195312 2159.867188 C 1363.195312 2161.660156 1363.453125 2163.527344 1363.597656 2165.757812 L 1363.597656 2165.355469 C 1363.597656 2163.414062 1363.34375 2161.695312 1363.234375 2159.867188 C 1363.234375 2159.867188 1402.484375 2113.378906 1400.652344 2070.515625 C 1400.652344 2070.515625 1407.054688 2114.40625 1380.863281 2150.578125 C 1380.863281 2150.578125 1383.242188 2218.753906 1386.789062 2247.355469 C 1390.339844 2275.957031 1422.273438 2411.070312 1416.75 2466.113281 L 1388.730469 2461.835938 L 1437.5625 2469.152344 C 1450.65625 2360.046875 1434.378906 2229.617188 1434.378906 2229.617188 C 1433.648438 2224.019531 1435.292969 2175.816406 1438.914062 2127.097656 Z M 1438.914062 2127.097656 " fill-opacity="1" fill-rule="nonzero"/><path fill="#d87100" d="M 1386.753906 2247.394531 C 1383.097656 2218.789062 1380.828125 2150.613281 1380.828125 2150.613281 C 1407.019531 2114.292969 1400.617188 2070.550781 1400.617188 2070.550781 C 1402.445312 2113.417969 1363.234375 2159.867188 1363.195312 2159.902344 C 1364.183594 2175.265625 1366.195312 2202.113281 1369.964844 2233.457031 C 1376.144531 2285.066406 1388.691406 2461.871094 1388.691406 2461.871094 L 1416.710938 2466.152344 C 1422.125 2411.105469 1390.410156 2276.03125 1386.753906 2247.394531 Z M 1386.753906 2247.394531 " fill-opacity="1" fill-rule="nonzero"/><path fill="#d87100" d="M 1343.992188 2039.277344 C 1296.988281 2037.082031 1280.308594 2007.824219 1280.308594 2007.824219 C 1273.691406 2046.734375 1269.445312 2085.90625 1267.566406 2125.332031 C 1265.6875 2164.753906 1266.191406 2204.152344 1269.078125 2243.515625 C 1278.917969 2371.53125 1281.953125 2509.054688 1281.953125 2509.054688 L 1299.804688 2512.929688 C 1305.769531 2454.777344 1281.1875 2284.445312 1281.1875 2284.445312 C 1281.1875 2284.445312 1275.773438 2177.460938 1292.964844 2131.191406 C 1310.15625 2084.925781 1343.992188 2039.277344 1343.992188 2039.277344 Z M 1343.992188 2039.277344 " fill-opacity="1" fill-rule="nonzero"/><path fill="#ffd9e1" d="M 1432.988281 1717.707031 C 1435.292969 1726.339844 1419.089844 1740.089844 1400.800781 1749.234375 L 1399.300781 1749.964844 C 1397.875 1750.660156 1396.449219 1751.320312 1394.984375 1751.941406 L 1392.714844 1752.890625 L 1389.058594 1754.28125 L 1386.753906 1755.195312 L 1383.425781 1756.257812 L 1381.046875 1756.914062 L 1377.828125 1757.648438 L 1375.597656 1758.050781 C 1374.535156 1758.230469 1373.511719 1758.339844 1372.523438 1758.414062 L 1370.550781 1758.597656 C 1369.523438 1758.652344 1368.5 1758.652344 1367.476562 1758.597656 C 1367 1758.597656 1366.453125 1758.597656 1365.976562 1758.597656 C 1364.625 1758.46875 1363.308594 1758.175781 1362.027344 1757.71875 C 1362.921875 1758.019531 1363.835938 1758.242188 1364.769531 1758.378906 C 1359 1770.007812 1351.988281 1780.835938 1343.738281 1790.855469 C 1343.738281 1790.855469 1297.683594 1818.253906 1267.433594 1895.171875 C 1237.472656 1920.773438 1172.328125 1964.664062 1172.328125 1964.664062 L 1184.910156 1989.5 C 1227.050781 1970.734375 1258.070312 1958.335938 1278.554688 1945.132812 C 1278.554688 1965.945312 1279.101562 1987.195312 1280.492188 2008.1875 C 1279.101562 1987.195312 1278.480469 1965.945312 1278.589844 1945.132812 C 1286.972656 1940.089844 1294.203125 1933.738281 1300.28125 1926.078125 C 1308.65625 1914.886719 1317.105469 1896.816406 1325.007812 1876.773438 C 1325.007812 1876.773438 1319.375 1912.03125 1299.074219 1940.339844 C 1299.074219 1940.339844 1312.023438 2013.820312 1344.175781 2039.644531 C 1391.214844 2041.800781 1448.9375 2006.726562 1450 1974.832031 C 1451.058594 1942.9375 1439.316406 1906.105469 1455.523438 1849.597656 C 1471.761719 1792.0625 1465.582031 1730.691406 1432.988281 1717.707031 Z M 1432.988281 1717.707031 " fill-opacity="1" fill-rule="nonzero"/><path fill="#ffd9e1" d="M 1301.085938 1789.136719 L 1300.828125 1789.6875 C 1301.523438 1788.113281 1302.257812 1786.613281 1302.988281 1785.152344 C 1302.328125 1786.46875 1301.707031 1787.75 1301.085938 1789.136719 Z M 1301.085938 1789.136719 " fill-opacity="1" fill-rule="nonzero"/><path fill="#ffd9e1" d="M 1304.121094 1782.847656 C 1305.402344 1780.398438 1306.753906 1778.09375 1308.144531 1775.972656 C 1306.253906 1778.933594 1304.535156 1781.996094 1302.988281 1785.152344 C 1303.207031 1784.675781 1303.425781 1784.164062 1303.683594 1783.726562 Z M 1304.121094 1782.847656 " fill-opacity="1" fill-rule="nonzero"/><path fill="#ffd9e1" d="M 1277.492188 1853.730469 C 1277.015625 1855.414062 1276.578125 1857.09375 1276.140625 1858.742188 C 1281.550781 1838.699219 1289.050781 1814.523438 1297.609375 1797.660156 C 1298.050781 1796.453125 1298.523438 1795.320312 1299 1794.003906 C 1299.402344 1793.050781 1299.804688 1792.210938 1300.171875 1791.296875 L 1300.9375 1789.503906 L 1300.28125 1790.929688 C 1296.339844 1795.828125 1292.867188 1801.03125 1289.855469 1806.546875 C 1246.167969 1815.847656 1203.140625 1827.5625 1160.769531 1841.695312 L 1163.21875 1864.117188 C 1163.21875 1864.117188 1225.21875 1866.203125 1277.492188 1853.730469 Z M 1277.492188 1853.730469 " fill-opacity="1" fill-rule="nonzero"/><path fill="#e2b5bf" d="M 1298.964844 1939.976562 C 1319.265625 1911.667969 1324.863281 1876.554688 1324.898438 1876.40625 C 1316.996094 1896.488281 1308.546875 1914.519531 1300.171875 1925.710938 C 1294.089844 1933.371094 1286.859375 1939.726562 1278.480469 1944.765625 C 1278.480469 1965.578125 1278.992188 1986.828125 1280.382812 2007.824219 C 1280.382812 2007.824219 1297.0625 2037.082031 1344.066406 2039.277344 C 1311.839844 2013.457031 1298.964844 1939.976562 1298.964844 1939.976562 Z M 1298.964844 1939.976562 " fill-opacity="1" fill-rule="nonzero"/><path fill="#e2b5bf" d="M 1343.699219 1790.636719 C 1351.953125 1780.617188 1358.964844 1769.789062 1364.734375 1758.160156 C 1363.800781 1758.019531 1362.882812 1757.800781 1361.988281 1757.5 C 1352.773438 1754.207031 1343.078125 1750.183594 1336.898438 1741.371094 L 1335.398438 1750.734375 C 1327.207031 1756.039062 1319.78125 1762.257812 1313.121094 1769.386719 C 1309.574219 1773.507812 1306.574219 1777.996094 1304.121094 1782.847656 L 1303.683594 1783.726562 C 1302.769531 1785.445312 1301.925781 1787.382812 1301.085938 1789.136719 C 1300.71875 1789.90625 1300.390625 1790.710938 1300.0625 1791.480469 C 1299.730469 1792.246094 1299.292969 1793.234375 1298.890625 1794.1875 C 1298.414062 1795.355469 1297.941406 1796.488281 1297.5 1797.84375 C 1280.308594 1831.710938 1267.285156 1895.132812 1267.285156 1895.132812 C 1297.648438 1818.03125 1343.699219 1790.636719 1343.699219 1790.636719 Z M 1343.699219 1790.636719 " fill-opacity="1" fill-rule="nonzero"/><path fill="#c9692d" d="M 1432.988281 1717.667969 C 1428.785156 1702.269531 1395.933594 1694.261719 1390.558594 1667.5625 C 1384.230469 1636.363281 1370.402344 1619.0625 1370.402344 1619.0625 C 1347.871094 1589.984375 1307.414062 1602.492188 1296.878906 1615.40625 C 1294.300781 1618.539062 1292.070312 1621.902344 1290.183594 1625.5 C 1290.183594 1626.085938 1290.183594 1632.265625 1314.984375 1647.261719 C 1309.359375 1645.851562 1303.992188 1643.765625 1298.890625 1641.007812 C 1298.890625 1641.007812 1305.769531 1650.480469 1325.59375 1651.980469 C 1345.417969 1653.480469 1355.808594 1655.050781 1360.308594 1667.707031 C 1364.804688 1680.363281 1360.308594 1696.96875 1360.308594 1696.96875 C 1360.429688 1692.269531 1359.761719 1687.683594 1358.296875 1683.214844 C 1359.046875 1690.378906 1358.691406 1697.484375 1357.234375 1704.539062 C 1354.820312 1718.070312 1368.207031 1746.601562 1400.800781 1749.308594 C 1419.089844 1740.089844 1435.332031 1726.300781 1432.988281 1717.667969 Z M 1432.988281 1717.667969 " fill-opacity="1" fill-rule="nonzero"/><path fill="#ad4f1a" d="M 1400.800781 1749.234375 C 1368.355469 1746.527344 1354.820312 1718 1357.234375 1704.464844 C 1358.691406 1697.414062 1359.046875 1690.304688 1358.296875 1683.140625 C 1359.761719 1687.609375 1360.429688 1692.195312 1360.308594 1696.894531 C 1360.308594 1696.894531 1364.804688 1680.214844 1360.308594 1667.632812 C 1355.808594 1655.050781 1345.417969 1653.261719 1325.59375 1651.90625 C 1305.769531 1650.554688 1298.890625 1640.933594 1298.890625 1640.933594 C 1303.992188 1643.691406 1309.359375 1645.777344 1314.984375 1647.1875 C 1290.074219 1632.191406 1290.113281 1626.011719 1290.183594 1625.425781 C 1287.828125 1629.519531 1286.476562 1633.921875 1286.125 1638.628906 C 1286.1875 1639.410156 1286.320312 1640.179688 1286.527344 1640.933594 C 1286.511719 1641.082031 1286.511719 1641.226562 1286.527344 1641.375 C 1288.027344 1647.003906 1294.320312 1660.136719 1320.875 1670.269531 C 1316.054688 1666.375 1311.664062 1662.046875 1307.707031 1657.285156 C 1314.054688 1659.949219 1320.554688 1662.179688 1327.203125 1663.976562 C 1327.203125 1663.792969 1327.203125 1663.648438 1327.386719 1663.5 C 1327.570312 1663.355469 1334.703125 1655.894531 1341.140625 1662.988281 C 1344.980469 1667.269531 1344.25 1676.742188 1337.007812 1681.53125 C 1318.535156 1739.210938 1341.503906 1750.074219 1361.878906 1757.390625 C 1370.804688 1760.609375 1386.386719 1756.292969 1400.691406 1749.125 Z M 1400.800781 1749.234375 " fill-opacity="1" fill-rule="nonzero"/><path fill="#9fade2" d="M 2045.175781 1736.433594 L 1619.980469 1984.523438 L 1619.066406 2110.929688 L 2049.933594 1859.289062 C 2050.519531 1853.765625 2050.882812 1850.730469 2050.882812 1850.730469 C 2051.503906 1844.441406 2049.566406 1788.882812 2045.175781 1736.433594 Z M 2045.175781 1736.433594 " fill-opacity="1" fill-rule="nonzero"/><path fill="#9849a1" d="M 2320.800781 1363.105469 C 2290.550781 1401.402344 2261.398438 1447.667969 2261.398438 1447.667969 C 2226.144531 1434.128906 2192.222656 1417.8125 2159.632812 1398.730469 L 2159.414062 1398.730469 C 2156.78125 1396.910156 2154.050781 1395.253906 2151.21875 1393.757812 C 2148.074219 1392.074219 2144.855469 1390.429688 2141.636719 1388.820312 L 2136.734375 1375.25 L 2107.363281 1365.265625 C 2100.515625 1365.769531 2093.695312 1365.511719 2086.90625 1364.492188 C 2080.117188 1363.472656 2073.523438 1361.71875 2067.125 1359.230469 L 2058.234375 1365.996094 C 2050.113281 1366.238281 2042.398438 1368.128906 2035.082031 1371.664062 C 2009.476562 1384.722656 1996.269531 1422.324219 2014.160156 1473.710938 C 2030.179688 1519.722656 2033.4375 1578.902344 2032.265625 1614.855469 C 2031.09375 1650.808594 2094.449219 1671.546875 2128.066406 1667.160156 C 2161.683594 1662.769531 2202.210938 1641.007812 2205.46875 1625.753906 C 2208.464844 1611.671875 2197.601562 1527 2195.882812 1493.570312 C 2221.488281 1502.640625 2250.351562 1504.542969 2277.929688 1491.414062 C 2314.507812 1474.113281 2343.113281 1371.371094 2343.113281 1371.371094 Z M 2320.800781 1363.105469 " fill-opacity="1" fill-rule="nonzero"/><path fill="#d07c61" d="M 2126.96875 1315.742188 C 2128.429688 1309.121094 2136.589844 1309.304688 2136.84375 1309.339844 C 2136.082031 1308.730469 2135.230469 1308.273438 2134.296875 1307.976562 C 2133.363281 1307.679688 2132.410156 1307.5625 2131.429688 1307.621094 C 2122.980469 1307.988281 2120.273438 1318.59375 2121.296875 1327.882812 C 2124.152344 1334.320312 2130.554688 1333.515625 2131.210938 1329.3125 C 2131.871094 1325.105469 2125.652344 1322.472656 2126.96875 1315.742188 Z M 2126.96875 1315.742188 " fill-opacity="1" fill-rule="nonzero"/><path fill="#cfab8b" d="M 2204.332031 1629.449219 C 2196.25 1644.335938 2159.597656 1663.171875 2128.429688 1667.160156 C 2112.484375 1669.242188 2089.988281 1665.660156 2070.820312 1657.574219 C 2070.820312 1657.574219 2061.785156 1757.757812 2061.785156 1842.5 C 2061.785156 1842.5 2055.308594 1990.488281 2068.550781 2085.691406 L 2095.546875 2081.15625 C 2095.546875 2081.15625 2108.714844 1905.59375 2114.898438 1854.132812 C 2118.554688 1822.859375 2120.640625 1796.125 2121.628906 1780.800781 C 2135.746094 1826.738281 2149.648438 1864.667969 2149.648438 1864.667969 C 2149.648438 1864.667969 2135.746094 1826.738281 2121.628906 1780.800781 C 2102.570312 1752.488281 2096.9375 1712.660156 2096.9375 1712.660156 C 2100.542969 1723.976562 2105.203125 1734.847656 2110.914062 1745.261719 C 2116.625 1755.679688 2123.28125 1765.453125 2130.882812 1774.582031 C 2130.882812 1774.582031 2162.15625 1853.292969 2163.804688 1860.535156 C 2165.449219 1867.777344 2153.964844 1998.605469 2184.800781 2132.730469 L 2158.753906 2138.25 L 2204.113281 2128.59375 C 2204.113281 2128.59375 2205.359375 1991.65625 2215.085938 1864.117188 C 2218.019531 1824.933594 2218.585938 1785.714844 2216.789062 1746.460938 C 2214.988281 1707.207031 2210.839844 1668.203125 2204.332031 1629.449219 Z M 2204.332031 1629.449219 " fill-opacity="1" fill-rule="nonzero"/><path fill="#823e8c" d="M 2058.089844 1366.070312 C 2050.109375 1366.34375 2042.527344 1368.222656 2035.339844 1371.703125 C 2009.734375 1384.757812 1996.527344 1422.359375 2014.414062 1473.746094 C 2030.4375 1519.757812 2033.691406 1578.9375 2032.523438 1614.890625 C 2031.863281 1633.984375 2049.382812 1648.761719 2071.003906 1657.796875 C 2071.332031 1596.277344 2038.265625 1548.691406 2031.605469 1471.625 C 2024.949219 1394.5625 2071.589844 1369.617188 2071.589844 1369.617188 C 2072.976562 1368.703125 2074.476562 1367.75 2076.015625 1366.835938 L 2080.878906 1363.179688 C 2076.207031 1362.167969 2071.648438 1360.789062 2067.199219 1359.046875 Z M 2058.089844 1366.070312 " fill-opacity="1" fill-rule="nonzero"/><path fill="#823e8c" d="M 2196.140625 1493.644531 C 2183.59375 1489.203125 2171.78125 1483.304688 2160.695312 1475.941406 C 2160.695312 1475.941406 2179.277344 1495.179688 2196.796875 1503.738281 Z M 2196.140625 1493.644531 " fill-opacity="1" fill-rule="nonzero"/><path fill="#f79673" d="M 1139.078125 1865.542969 C 1144.417969 1868.542969 1156.855469 1866.824219 1162.851562 1861.886719 L 1160.949219 1844.550781 C 1154.621094 1844.332031 1138.675781 1844.074219 1132.675781 1846.453125 C 1125.105469 1849.488281 1115.667969 1856.546875 1116.25 1857.207031 C 1121.113281 1856.808594 1125.882812 1855.90625 1130.554688 1854.5 C 1130.554688 1854.5 1134.539062 1862.984375 1139.078125 1865.542969 Z M 1139.078125 1865.542969 " fill-opacity="1" fill-rule="nonzero"/><path fill="#f79673" d="M 1327.496094 1663.757812 C 1327.496094 1663.757812 1327.496094 1664.050781 1327.3125 1664.234375 C 1320.664062 1662.433594 1314.167969 1660.203125 1307.816406 1657.539062 C 1311.773438 1662.304688 1316.164062 1666.632812 1320.984375 1670.523438 C 1294.429688 1660.390625 1288.0625 1647.261719 1286.636719 1641.628906 C 1286.621094 1641.484375 1286.621094 1641.335938 1286.636719 1641.191406 C 1286.429688 1640.433594 1286.296875 1639.667969 1286.234375 1638.886719 C 1286.234375 1638.886719 1290.769531 1711.011719 1314.65625 1717.230469 C 1316.023438 1717.570312 1317.414062 1717.753906 1318.824219 1717.785156 C 1320.234375 1717.816406 1321.628906 1717.691406 1323.011719 1717.414062 C 1324.390625 1717.136719 1325.726562 1716.710938 1327.015625 1716.136719 C 1328.300781 1715.5625 1329.511719 1714.855469 1330.640625 1714.011719 C 1331.472656 1703.003906 1333.667969 1692.277344 1337.226562 1681.824219 C 1344.542969 1677.035156 1345.199219 1667.5625 1341.359375 1663.28125 C 1334.882812 1655.96875 1327.496094 1663.757812 1327.496094 1663.757812 Z M 1327.496094 1663.757812 " fill-opacity="1" fill-rule="nonzero"/><path fill="#f79673" d="M 1149.867188 1973.441406 C 1138.125 1980.757812 1128.542969 1984.414062 1128.210938 1986.792969 C 1127.882812 1989.167969 1144.125 1983.902344 1150.160156 1981.964844 C 1144.601562 1983.792969 1130.738281 1988.476562 1128.210938 1990.851562 C 1124.921875 1993.851562 1154.804688 1987.195312 1154.804688 1987.195312 C 1154.804688 1987.195312 1133.445312 1994.289062 1131.652344 1996.082031 C 1129.859375 1997.875 1156.34375 1994.839844 1156.34375 1994.839844 C 1156.34375 1994.839844 1137.175781 2001.238281 1136.261719 2003.617188 C 1135.34375 2005.996094 1170.316406 1999.960938 1184.726562 1988.988281 L 1172.144531 1964.152344 C 1164.183594 1965.96875 1156.757812 1969.066406 1149.867188 1973.441406 Z M 1149.867188 1973.441406 " fill-opacity="1" fill-rule="nonzero"/><path fill="#f79673" d="M 2136.625 1309.15625 C 2136.085938 1308.753906 2135.503906 1308.4375 2134.871094 1308.207031 C 2135.488281 1308.457031 2136.074219 1308.773438 2136.625 1309.15625 Z M 2136.625 1309.15625 " fill-opacity="1" fill-rule="nonzero"/><path fill="#f79673" d="M 2158.023438 1289.152344 C 2158.582031 1286.429688 2158.730469 1283.6875 2158.460938 1280.921875 C 2157.804688 1281.46875 2157.144531 1282.054688 2156.378906 1282.605469 C 2156.378906 1282.605469 2147.527344 1306.890625 2140.464844 1314.316406 C 2139.691406 1312.328125 2138.472656 1310.671875 2136.808594 1309.339844 C 2136.148438 1309.339844 2128.429688 1309.339844 2127.003906 1315.742188 C 2125.578125 1322.140625 2131.871094 1325.140625 2131.246094 1329.3125 C 2130.625 1333.480469 2124.1875 1334.320312 2121.335938 1327.882812 C 2121.519531 1330.808594 2125.90625 1334.394531 2125.90625 1334.394531 C 2127.5 1337.125 2128.863281 1339.96875 2130.003906 1342.917969 C 2131.542969 1346.355469 2132.597656 1349.9375 2133.175781 1353.660156 C 2133.753906 1357.386719 2133.828125 1361.117188 2133.40625 1364.863281 L 2122.433594 1363.214844 C 2119.835938 1363.800781 2117.273438 1364.242188 2114.789062 1364.605469 C 2112.300781 1364.972656 2109.921875 1365.226562 2107.472656 1365.375 L 2134.941406 1374.589844 C 2135.835938 1365.808594 2137.421875 1357.152344 2139.699219 1348.621094 C 2140.878906 1349.132812 2142.097656 1349.519531 2143.359375 1349.78125 C 2144.617188 1350.039062 2145.890625 1350.171875 2147.179688 1350.171875 C 2148.464844 1350.171875 2149.738281 1350.039062 2150.996094 1349.78125 C 2152.257812 1349.519531 2153.476562 1349.132812 2154.660156 1348.621094 C 2176.972656 1338.234375 2168.59375 1266.765625 2168.59375 1266.765625 C 2167.835938 1270.894531 2166.558594 1274.851562 2164.769531 1278.648438 C 2162.976562 1282.441406 2160.730469 1285.941406 2158.023438 1289.152344 Z M 2158.023438 1289.152344 " fill-opacity="1" fill-rule="nonzero"/><path fill="#f79673" d="M 2136.625 1309.15625 L 2136.882812 1309.339844 Z M 2136.625 1309.15625 " fill-opacity="1" fill-rule="nonzero"/><path fill="#f79673" d="M 2350.464844 1341.894531 L 2350.464844 1339.515625 C 2349.550781 1336.222656 2343.371094 1335.859375 2343.371094 1335.859375 L 2343.371094 1333.808594 C 2342.089844 1330.882812 2333.566406 1331.796875 2333.566406 1331.796875 C 2333.566406 1331.796875 2340.554688 1316.691406 2339.199219 1315.996094 C 2337.847656 1315.300781 2324.789062 1332.457031 2323.433594 1339.917969 C 2322.082031 1347.378906 2320.800781 1363.105469 2320.800781 1363.105469 L 2341.285156 1370.640625 C 2351.453125 1363.507812 2349.332031 1350.488281 2349.332031 1350.488281 C 2349.332031 1350.488281 2351.125 1357.804688 2352.992188 1351.183594 C 2353.332031 1350.378906 2353.53125 1349.542969 2353.589844 1348.671875 C 2353.648438 1347.800781 2353.566406 1346.945312 2353.335938 1346.101562 C 2353.105469 1345.257812 2352.746094 1344.476562 2352.253906 1343.757812 C 2351.765625 1343.035156 2351.167969 1342.414062 2350.464844 1341.894531 Z M 2350.464844 1341.894531 " fill-opacity="1" fill-rule="nonzero"/><path fill="#b28e72" d="M 2164.132812 1860.753906 C 2162.339844 1853.4375 2131.210938 1774.800781 2131.210938 1774.800781 C 2123.609375 1765.671875 2116.953125 1755.898438 2111.242188 1745.480469 C 2105.53125 1735.066406 2100.871094 1724.195312 2097.265625 1712.878906 C 2097.265625 1712.878906 2102.898438 1752.710938 2121.957031 1781.019531 C 2136.078125 1826.957031 2149.976562 1864.886719 2149.976562 1864.886719 C 2125.433594 2008.773438 2159.230469 2138.472656 2159.230469 2138.472656 L 2185.277344 2132.949219 C 2154.292969 1998.824219 2165.886719 1867.847656 2164.132812 1860.753906 Z M 2164.132812 1860.753906 " fill-opacity="1" fill-rule="nonzero"/><path fill="#b28e72" d="M 2071.003906 1657.796875 C 2055.601562 1651.320312 2042.433594 1641.957031 2036.324219 1630.179688 C 2036.753906 1650.660156 2038.289062 1671.058594 2040.933594 1691.371094 C 2048.25 1751.027344 2051.90625 1842.648438 2050.992188 1850.839844 C 2050.992188 1850.839844 2034.789062 1980.832031 2047.847656 2089.53125 L 2068.84375 2085.875 C 2055.601562 1990.777344 2062.078125 1842.683594 2062.078125 1842.683594 C 2061.96875 1757.976562 2071.003906 1657.796875 2071.003906 1657.796875 Z M 2071.003906 1657.796875 " fill-opacity="1" fill-rule="nonzero"/><path fill="#211e1b" d="M 1284.808594 2509.675781 L 1286.601562 2531.621094 C 1231.730469 2528.257812 1224.414062 2504.007812 1223.792969 2500.714844 C 1223.261719 2503.152344 1223.261719 2505.589844 1223.792969 2508.03125 C 1229.242188 2535.609375 1286.964844 2537.914062 1286.964844 2537.914062 L 1295.527344 2545.519531 L 1325.117188 2543.691406 L 1326.542969 2540.546875 L 1325.703125 2518.929688 Z M 1284.808594 2509.675781 " fill-opacity="1" fill-rule="nonzero"/><path fill="#211e1b" d="M 1397.507812 2463.226562 L 1397.507812 2474.671875 C 1344.90625 2470.757812 1343.699219 2436.78125 1343.699219 2436.78125 C 1338.726562 2448.191406 1347.90625 2460.847656 1357.929688 2467.613281 C 1372.269531 2477.234375 1382.914062 2481.730469 1395.3125 2481.039062 L 1395.679688 2490.253906 L 1420.917969 2500.128906 L 1439.207031 2493.109375 L 1439.207031 2486.378906 L 1437.378906 2469.332031 Z M 1397.507812 2463.226562 " fill-opacity="1" fill-rule="nonzero"/><path fill="#211e1b" d="M 2078.648438 1292.332031 C 2098.035156 1293.246094 2103.886719 1274.628906 2103.886719 1274.628906 L 2079.855469 1269.144531 C 2079.855469 1268.289062 2080 1267.414062 2080.292969 1266.511719 C 2084.648438 1245.992188 2100.558594 1243.394531 2101.621094 1243.25 C 2099.988281 1241.648438 2098.109375 1240.429688 2095.984375 1239.589844 C 2085.597656 1235.75 2073.34375 1242.882812 2068.660156 1255.539062 C 2067.859375 1257.503906 2067.316406 1259.539062 2067.027344 1261.640625 C 2066.738281 1263.742188 2066.710938 1265.847656 2066.953125 1267.957031 C 2067.191406 1270.066406 2067.6875 1272.113281 2068.441406 1274.097656 C 2069.195312 1276.082031 2070.183594 1277.941406 2071.40625 1279.679688 C 2068.773438 1293.394531 2060.761719 1331.25 2049.96875 1350.011719 C 2054.140625 1352.875 2058.523438 1355.363281 2063.121094 1357.472656 C 2067.71875 1359.585938 2072.460938 1361.289062 2077.351562 1362.589844 C 2082.238281 1363.890625 2087.203125 1364.761719 2092.242188 1365.210938 C 2097.28125 1365.660156 2102.320312 1365.679688 2107.363281 1365.265625 C 2103.484375 1345.585938 2092.730469 1321.738281 2091.890625 1312.632812 C 2091.613281 1310.554688 2091.109375 1308.53125 2090.378906 1306.566406 C 2089.648438 1304.601562 2088.710938 1302.738281 2087.566406 1300.984375 C 2086.421875 1299.226562 2085.097656 1297.621094 2083.589844 1296.160156 C 2082.085938 1294.699219 2080.4375 1293.425781 2078.648438 1292.332031 Z M 2078.648438 1292.332031 " fill-opacity="1" fill-rule="nonzero"/><path fill="#211e1b" d="M 2045.910156 2105.882812 L 2045.945312 2112.574219 L 2064.050781 2119.597656 L 2068.769531 2085.910156 L 2047.738281 2089.421875 Z M 2045.910156 2105.882812 " fill-opacity="1" fill-rule="nonzero"/><path fill="#211e1b" d="M 2159.085938 2138.472656 L 2158.132812 2159.5 L 2159.558594 2162.648438 L 2189.078125 2164.476562 L 2192.957031 2131.265625 Z M 2159.085938 2138.472656 " fill-opacity="1" fill-rule="nonzero"/><path fill="#f2f1ef" d="M 1278.40625 1959.617188 C 1278.40625 1957.167969 1278.40625 1954.714844 1278.40625 1952.300781 L 1272.1875 1955.960938 Z M 1278.40625 1959.617188 " fill-opacity="1" fill-rule="nonzero"/><path fill="#f2f1ef" d="M 2038.558594 1670.78125 L 1998.976562 1647.957031 L 1998.976562 1657.175781 L 2039.582031 1680.546875 C 2039.582031 1680.179688 2039.582031 1679.8125 2039.582031 1679.449219 C 2039.582031 1678.203125 2039.324219 1676.996094 2039.179688 1675.789062 C 2039.03125 1674.582031 2038.738281 1672.390625 2038.558594 1670.78125 Z M 2038.558594 1670.78125 " fill-opacity="1" fill-rule="nonzero"/><g clip-path="url(#b39747c715)"><path fill="#f2f1ef" d="M 2217.902344 1774.214844 C 2218.453125 1802.121094 2217.902344 1832.734375 2215.488281 1864.335938 C 2211.320312 1918.871094 2208.6875 1975.050781 2207.039062 2021.613281 C 2242.375 2034.121094 2271.164062 2051.898438 2287.953125 2073.734375 C 2331.847656 2130.679688 2277.453125 2193.515625 2166.765625 2214.109375 C 2056.078125 2234.703125 1930.832031 2205.183594 1887.082031 2148.273438 C 1843.335938 2091.363281 1897.542969 2028.488281 2008.234375 2007.898438 C 2019.609375 2005.8125 2031.132812 2004.238281 2042.691406 2003.140625 C 2042.484375 1955.09375 2044.925781 1907.179688 2050.007812 1859.398438 L 1619.140625 2111.039062 L 1453.109375 2013.675781 C 1453.109375 2014.699219 1453.109375 2015.578125 1453.292969 2016.675781 C 1453.648438 2027.199219 1453.40625 2037.707031 1452.558594 2048.203125 C 1451.9375 2056.503906 1450.914062 2065.648438 1449.414062 2075.707031 C 1447.183594 2090.777344 1443.816406 2107.894531 1438.988281 2127.207031 L 1438.332031 2136.351562 C 1437.050781 2154.636719 1436.097656 2172.304688 1435.402344 2187.554688 C 1435.402344 2190.078125 1435.183594 2192.53125 1435.074219 2194.871094 C 1434.269531 2213.742188 1434.015625 2227.203125 1434.308594 2230.128906 C 1434.308594 2230.128906 1434.5625 2232.105469 1434.964844 2235.652344 L 1434.964844 2236.273438 C 1435.585938 2241.90625 1436.539062 2251.160156 1437.5625 2263.195312 C 1437.78125 2265.570312 1438 2268.09375 1438.183594 2270.691406 C 1439.28125 2284.042969 1440.378906 2299.953125 1441.183594 2317.800781 C 1441.183594 2320.800781 1441.441406 2323.835938 1441.585938 2326.910156 C 1441.914062 2336.160156 1442.207031 2345.816406 1442.355469 2355.730469 C 1442.355469 2359.058594 1442.355469 2362.386719 1442.355469 2365.75 C 1442.355469 2379.210938 1442.355469 2393.074219 1441.84375 2407.046875 C 1441.84375 2409.75 1441.621094 2412.457031 1441.511719 2415.164062 C 1471.835938 2427.308594 1496.382812 2443.621094 1511.488281 2463.152344 C 1555.382812 2520.101562 1500.992188 2582.972656 1390.300781 2603.527344 C 1279.613281 2624.085938 1154.367188 2594.640625 1110.617188 2537.691406 C 1066.871094 2480.746094 1121.078125 2417.871094 1231.769531 2397.316406 C 1246.960938 2394.523438 1262.261719 2392.636719 1277.675781 2391.648438 C 1276.6875 2369.371094 1275.480469 2345.195312 1274.015625 2320.25 L 1051.324219 2448.8125 L 824.128906 2317.691406 L 824.128906 2215.28125 L 695.410156 2289.453125 L 695.410156 2378.84375 L 1418.722656 2797.050781 L 2698.515625 2051.457031 Z M 2217.902344 1774.214844 " fill-opacity="1" fill-rule="nonzero"/></g><path fill="#f2f1ef" d="M 1383.902344 2398.085938 C 1379.695312 2342.050781 1373.585938 2264.765625 1369.855469 2233.496094 C 1369.414062 2229.910156 1369.011719 2226.398438 1368.648438 2222.960938 C 1368.648438 2221.898438 1368.390625 2220.839844 1368.28125 2219.777344 L 1367.511719 2212.464844 L 1367.183594 2209.207031 C 1366.929688 2206.792969 1366.707031 2204.488281 1366.488281 2202.1875 L 1366.269531 2199.660156 C 1365.976562 2196.625 1365.683594 2193.664062 1365.464844 2190.8125 C 1365.464844 2190.296875 1365.464844 2189.824219 1365.464844 2189.347656 C 1365.246094 2186.933594 1365.0625 2184.628906 1364.878906 2182.398438 C 1364.878906 2181.628906 1364.878906 2180.863281 1364.695312 2180.09375 C 1364.695312 2178.15625 1364.402344 2176.4375 1364.257812 2174.460938 C 1364.257812 2173.839844 1364.257812 2173.21875 1364.257812 2172.632812 C 1363.890625 2167.730469 1363.597656 2163.414062 1363.378906 2159.757812 C 1349.222656 2205.84375 1335.25 2243.882812 1335.25 2243.882812 C 1343.222656 2293.054688 1345.761719 2342.503906 1342.859375 2392.230469 C 1356.640625 2393.480469 1370.320312 2395.429688 1383.902344 2398.085938 Z M 1383.902344 2398.085938 " fill-opacity="1" fill-rule="nonzero"/><path fill="#f2f1ef" d="M 2149.648438 1864.445312 L 2149.648438 1863.972656 C 2149.648438 1863.679688 2149.429688 1863.277344 2149.246094 1862.800781 L 2149.027344 1862.214844 C 2148.804688 1861.59375 2148.550781 1860.824219 2148.222656 1859.984375 C 2148.222656 1859.984375 2148.222656 1859.621094 2148.222656 1859.398438 C 2144.5625 1849.121094 2136.148438 1825.238281 2126.933594 1796.308594 L 2123.894531 1786.6875 L 2123.894531 1786.394531 C 2123.347656 1784.640625 2122.796875 1782.921875 2122.285156 1781.164062 C 2121.296875 1796.488281 2119.285156 1823.226562 2115.554688 1854.5 C 2112.152344 1882.734375 2106.667969 1948.425781 2102.386719 2001.898438 C 2115.847656 2002.59375 2129.089844 2003.910156 2142.039062 2005.8125 C 2139.691406 1958.574219 2142.289062 1911.613281 2149.832031 1864.921875 Z M 2149.648438 1864.445312 " fill-opacity="1" fill-rule="nonzero"/><path fill="#f2f1ef" d="M 976.8125 1971.761719 L 1152.609375 1874.214844 L 1054.46875 1816.898438 L 878.671875 1914.445312 Z M 976.8125 1971.761719 " fill-opacity="1" fill-rule="nonzero"/><path fill="#f2f1ef" d="M 695.371094 2584.144531 L 655.574219 2607.003906 L 655.574219 2606.710938 L 295.671875 2399.253906 L 295.636719 2344.246094 L 174.375 2414.285156 L 645.476562 2685.347656 L 813.816406 2588.128906 L 695.371094 2519.441406 Z M 695.371094 2584.144531 " fill-opacity="1" fill-rule="nonzero"/><path fill="#f2f1ef" d="M 1472.789062 112.957031 L 160.292969 871.238281 L 164.5 1920.445312 L 1476.996094 1162.308594 Z M 651.515625 708.550781 L 653.707031 1249.027344 L 220.503906 1499.351562 L 218.34375 958.875 Z M 218.417969 1795.976562 L 218.417969 1774.507812 L 531.058594 1593.863281 L 531.058594 1615.292969 Z M 218.417969 1694.917969 L 218.417969 1673.449219 L 531.058594 1492.804688 L 531.058594 1514.238281 Z M 218.417969 1593.863281 L 218.417969 1572.390625 L 531.058594 1391.746094 L 531.058594 1413.179688 Z M 576.160156 1589.253906 L 576.160156 1567.820312 L 660.292969 1519.246094 L 660.292969 1540.679688 Z M 576.160156 1488.195312 L 576.160156 1466.726562 L 660.292969 1418.1875 L 660.292969 1439.621094 Z M 576.160156 1387.136719 L 576.160156 1365.667969 L 660.292969 1317.09375 L 660.292969 1338.5625 Z M 730.488281 1210.695312 L 730.488281 668.390625 L 736.925781 664.734375 L 736.925781 1174.851562 C 752.253906 1094.019531 789.636719 927.382812 847.652344 893.84375 C 873.621094 878.847656 896.738281 899.878906 915.578125 932.246094 C 932.808594 961.910156 984.382812 930.234375 999.199219 881.042969 C 1021.695312 806.316406 1052.089844 735.179688 1090.097656 713.195312 C 1132.199219 688.875 1167.863281 746.113281 1192.519531 806.71875 C 1202.796875 832.101562 1242.230469 810.890625 1254.703125 773.398438 C 1269.589844 728.375 1288.757812 688.070312 1312.132812 674.644531 C 1368.246094 642.203125 1407.859375 819.410156 1407.859375 819.410156 L 1228.84375 922.882812 L 1217.867188 929.136719 L 966.824219 1074.085938 L 953.839844 1081.621094 L 730.523438 1210.660156 Z M 732.425781 1503.300781 L 732.425781 1481.832031 L 1414.113281 1089.15625 L 1414.113281 1110.589844 Z M 732.425781 1403.484375 L 732.425781 1382.015625 L 1414.113281 989.339844 L 1414.113281 1010.8125 Z M 732.425781 1303.671875 L 732.425781 1282.203125 L 1414.113281 889.527344 L 1414.113281 910.996094 Z M 1362.027344 375.496094 L 1362.027344 362.179688 L 1414.226562 332.007812 L 1414.226562 345.355469 Z M 1362.027344 299.269531 L 1362.027344 285.957031 L 1414.226562 255.78125 L 1414.226562 269.132812 Z M 1362.027344 299.269531 " fill-opacity="1" fill-rule="nonzero"/><path fill="#f2f1ef" d="M 2656.378906 590.523438 L 1813.339844 105.019531 L 1809.132812 836.527344 L 2656.378906 1325.46875 Z M 2489.871094 629.476562 L 2529.667969 652.480469 L 2529.484375 892.417969 L 2489.6875 869.410156 Z M 2425.089844 588.839844 L 2464.886719 611.808594 L 2464.886719 855.109375 L 2425.089844 832.101562 Z M 2360.34375 588.839844 L 2399.996094 611.808594 L 2399.996094 817.800781 L 2360.195312 794.796875 Z M 2306.132812 1024.894531 L 1872.964844 774.570312 L 1875.121094 234.09375 L 2308.328125 484.417969 Z M 2467.082031 1117.722656 L 2360.125 1055.871094 L 2360.125 1028.515625 L 2467.191406 1090.398438 Z M 2467.082031 1058.101562 L 2360.125 996.253906 L 2360.125 968.933594 L 2467.191406 1030.78125 Z M 2467.082031 998.484375 L 2360.125 936.636719 L 2360.125 909.3125 L 2467.191406 971.164062 Z M 2467.082031 938.902344 L 2360.125 877.019531 L 2360.125 849.695312 L 2467.191406 911.546875 Z M 2594.230469 1188.570312 L 2487.164062 1126.71875 L 2487.164062 1099.398438 L 2594.230469 1161.246094 Z M 2594.230469 1128.988281 L 2487.164062 1067.101562 L 2487.164062 1039.777344 L 2594.230469 1101.628906 Z M 2594.230469 1069.367188 L 2487.164062 1007.519531 L 2487.164062 980.160156 L 2594.449219 1041.972656 Z M 2594.230469 1009.75 L 2487.164062 947.902344 L 2487.164062 920.578125 L 2594.230469 982.429688 Z M 2594.230469 929.722656 L 2554.46875 906.644531 L 2554.46875 629.402344 L 2594.265625 652.40625 Z M 2594.230469 929.722656 " fill-opacity="1" fill-rule="nonzero"/><path fill="#f2f1ef" d="M 2383.644531 1244.308594 L 2383.570312 1281.066406 L 2460.386719 1325.433594 L 2460.460938 1288.675781 Z M 2383.644531 1244.308594 " fill-opacity="1" fill-rule="nonzero"/><path fill="#f2f1ef" d="M 2425.015625 1440.246094 L 2460.386719 1460.691406 L 2460.460938 1423.894531 L 2425.089844 1403.484375 Z M 2425.015625 1440.246094 " fill-opacity="1" fill-rule="nonzero"/><path fill="#2ae8d4" d="M 2495.210938 1389.808594 L 2495.210938 1394.746094 L 2592.292969 1449.386719 L 2590.902344 1819.898438 L 2444.074219 1904.679688 L 2448.390625 1907.167969 L 2594.121094 1823.042969 L 2595.21875 1822.421875 L 2596.605469 1448.144531 L 2596.605469 1446.863281 Z M 2495.210938 1389.808594 " fill-opacity="1" fill-rule="nonzero"/><path fill="#2ae8d4" d="M 1811.328125 458.339844 L 1626.96875 351.902344 L 1625.90625 351.28125 L 1474.105469 438.878906 L 1474.105469 443.855469 L 1625.90625 356.253906 L 1811.289062 463.3125 Z M 1811.328125 458.339844 " fill-opacity="1" fill-rule="nonzero"/><path fill="#2ae8d4" d="M 1118.957031 1915.175781 L 1165.851562 1941.949219 L 1222.625 1910.386719 L 1175.730469 1883.613281 Z M 1118.957031 1915.175781 " fill-opacity="1" fill-rule="nonzero"/><path fill="#2ae8d4" d="M 1660.585938 1475.757812 L 1830.675781 1573.160156 L 1998.976562 1475.941406 L 1830.714844 1377.515625 Z M 1660.585938 1475.757812 " fill-opacity="1" fill-rule="nonzero"/><path fill="#2ae8d4" d="M 2218.125 1320.714844 L 2311.289062 1375.578125 C 2314.4375 1371.410156 2317.617188 1367.277344 2320.800781 1363.214844 C 2320.800781 1363.214844 2322.082031 1347.453125 2323.433594 1340.027344 C 2324.789062 1332.601562 2337.847656 1315.449219 2339.199219 1316.105469 C 2340.554688 1316.765625 2333.566406 1331.90625 2333.566406 1331.90625 C 2333.566406 1331.90625 2342.089844 1330.992188 2343.371094 1333.917969 L 2343.371094 1335.96875 C 2343.371094 1335.96875 2349.550781 1336.371094 2350.464844 1339.625 L 2350.464844 1341.894531 C 2351.160156 1342.414062 2351.75 1343.035156 2352.234375 1343.753906 C 2352.71875 1344.476562 2353.074219 1345.253906 2353.300781 1346.09375 C 2353.527344 1346.929688 2353.609375 1347.78125 2353.550781 1348.648438 C 2353.492188 1349.515625 2353.292969 1350.347656 2352.953125 1351.144531 C 2351.125 1357.914062 2349.296875 1350.453125 2349.296875 1350.453125 C 2349.296875 1350.453125 2351.417969 1363.472656 2341.25 1370.605469 L 2320.765625 1363.070312 L 2343.332031 1371.371094 C 2343.332031 1371.371094 2341.140625 1379.125 2337.261719 1390.722656 L 2363.523438 1406.15625 L 2363.523438 1232.570312 L 2219.550781 1148.042969 Z M 2218.125 1320.714844 " fill-opacity="1" fill-rule="nonzero"/><path fill="#2ae8d4" d="M 2460.460938 1341.089844 L 2383.644531 1296.6875 L 2383.570312 1303.269531 L 2460.386719 1347.636719 Z M 2460.460938 1341.089844 " fill-opacity="1" fill-rule="nonzero"/><path fill="#2ae8d4" d="M 2460.460938 1366.363281 L 2383.644531 1321.996094 L 2383.570312 1328.578125 L 2460.386719 1372.945312 Z M 2460.460938 1366.363281 " fill-opacity="1" fill-rule="nonzero"/><path fill="#2ae8d4" d="M 2460.460938 1391.671875 L 2383.644531 1347.304688 L 2383.570312 1353.851562 L 2460.386719 1398.21875 Z M 2460.460938 1391.671875 " fill-opacity="1" fill-rule="nonzero"/><path fill="#2ae8d4" d="M 2308.328125 484.417969 L 1875.121094 234.09375 L 1872.964844 774.570312 L 2306.132812 1024.894531 Z M 2041.519531 802.074219 L 1909.835938 726.253906 L 1909.835938 539.097656 L 2041.519531 614.917969 Z M 2273.578125 679.582031 L 1909.835938 470.1875 L 1909.835938 458.742188 L 2273.578125 668.136719 Z M 2273.578125 619.890625 L 1909.835938 410.460938 L 1909.835938 399.011719 L 2273.578125 608.445312 Z M 2273.578125 560.164062 L 1909.835938 350.695312 L 1909.835938 339.285156 L 2273.578125 548.714844 Z M 2273.578125 560.164062 " fill-opacity="1" fill-rule="nonzero"/><path fill="#2ae8d4" d="M 583.183594 1076.027344 C 583.183594 1075.402344 583.441406 1074.746094 583.585938 1074.085938 C 583.585938 1074.746094 583.257812 1075.402344 583.074219 1076.0625 Z M 583.183594 1076.027344 " fill-opacity="1" fill-rule="nonzero"/><path fill="#2ae8d4" d="M 522.023438 1087.621094 C 511.527344 1135.167969 477.289062 1185.128906 436.429688 1208.722656 C 387.046875 1237.25 346.847656 1216.328125 346.628906 1161.976562 C 346.40625 1107.625 386.277344 1040.4375 435.625 1012.019531 L 436.027344 1011.800781 L 436.027344 940.441406 L 435.332031 940.804688 C 350.320312 989.925781 281.699219 1105.652344 282.066406 1199.25 C 282.429688 1292.84375 351.566406 1328.945312 436.683594 1279.714844 C 505.710938 1239.847656 563.796875 1156.125 583 1075.953125 L 521.949219 1087.511719 Z M 522.023438 1087.621094 " fill-opacity="1" fill-rule="nonzero"/><g clip-path="url(#838d7cc95d)"><path fill="#d7d3d2" d="M 1418.722656 2797.050781 L 1417.222656 2834.175781 L 2697.601562 2087.703125 L 2698.515625 2051.421875 Z M 1418.722656 2797.050781 " fill-opacity="1" fill-rule="nonzero"/></g><path fill="#d7d3d2" d="M 645.550781 2799.757812 L 813.816406 2703.015625 L 813.816406 2588.128906 L 645.476562 2685.347656 Z M 645.550781 2799.757812 " fill-opacity="1" fill-rule="nonzero"/><g clip-path="url(#3e238b77c5)"><path fill="#d7d3d2" d="M 1451.460938 99.75 L 136.371094 861.109375 L 160.292969 871.238281 L 1472.789062 113.101562 Z M 1451.460938 99.75 " fill-opacity="1" fill-rule="nonzero"/></g><path fill="#d7d3d2" d="M 2680.265625 580.390625 L 2656.378906 590.523438 L 2656.378906 1325.433594 L 2680.117188 1312.597656 Z M 2680.265625 580.390625 " fill-opacity="1" fill-rule="nonzero"/><g clip-path="url(#688f45056c)"><path fill="#c6c4c5" d="M 695.371094 2413.703125 L 1417.222656 2834.175781 L 1418.722656 2797.050781 L 695.371094 2378.84375 Z M 695.371094 2413.703125 " fill-opacity="1" fill-rule="nonzero"/></g><path fill="#c6c4c5" d="M 174.375 2414.285156 L 174.375 2527.816406 L 645.550781 2799.757812 L 645.476562 2685.347656 Z M 174.375 2414.285156 " fill-opacity="1" fill-rule="nonzero"/><g clip-path="url(#989a871b0e)"><path fill="#c6c4c5" d="M 136.371094 861.109375 L 140.761719 1907.570312 L 164.5 1920.445312 L 160.292969 871.238281 Z M 136.371094 861.109375 " fill-opacity="1" fill-rule="nonzero"/></g><g clip-path="url(#5a1bdedd2d)"><path fill="#c6c4c5" d="M 1834.664062 91.632812 L 1813.339844 105.019531 L 2656.378906 590.523438 L 2680.265625 580.390625 Z M 1834.664062 91.632812 " fill-opacity="1" fill-rule="nonzero"/></g><path fill="#fd6545" d="M 1625.90625 567.84375 L 1474.945312 654.96875 L 1474.984375 659.980469 L 1625.90625 572.855469 L 1810.046875 679.179688 L 1810.082031 674.207031 L 1626.96875 568.46875 Z M 1625.90625 567.84375 " fill-opacity="1" fill-rule="nonzero"/><path fill="#fd6545" d="M 1625.90625 619.890625 L 1475.164062 706.867188 L 1475.203125 711.84375 L 1625.90625 624.867188 L 1809.753906 731.046875 L 1809.753906 726.035156 L 1626.96875 620.515625 Z M 1625.90625 619.890625 " fill-opacity="1" fill-rule="nonzero"/><path fill="#fd6545" d="M 576.050781 1365.667969 L 576.160156 1387.136719 L 660.183594 1338.566406 L 660.109375 1317.09375 Z M 576.050781 1365.667969 " fill-opacity="1" fill-rule="nonzero"/><path fill="#fd6545" d="M 576.050781 1466.726562 L 576.160156 1488.195312 L 660.183594 1439.621094 L 660.109375 1418.1875 Z M 576.050781 1466.726562 " fill-opacity="1" fill-rule="nonzero"/><path fill="#fd6545" d="M 576.050781 1567.820312 L 576.160156 1589.253906 L 660.183594 1540.679688 L 660.109375 1519.246094 Z M 576.050781 1567.820312 " fill-opacity="1" fill-rule="nonzero"/><path fill="#fd6545" d="M 788.757812 1559.847656 L 784.441406 1562.332031 L 782.761719 2078.851562 L 782.761719 2080.097656 L 824.277344 2103.835938 L 824.277344 2098.824219 L 787.074219 2077.609375 Z M 788.757812 1559.847656 " fill-opacity="1" fill-rule="nonzero"/><path fill="#fd6545" d="M 734.328125 1591.265625 L 730.011719 1593.789062 L 728.332031 2110.894531 L 728.332031 2112.171875 L 823.179688 2166.339844 L 824.277344 2164.476562 L 824.277344 2161.988281 L 732.644531 2109.648438 Z M 734.328125 1591.265625 " fill-opacity="1" fill-rule="nonzero"/><path fill="#fd6545" d="M 2360.125 794.796875 L 2399.921875 817.800781 L 2400.105469 611.84375 L 2360.34375 588.839844 Z M 2360.125 794.796875 " fill-opacity="1" fill-rule="nonzero"/><path fill="#fd6545" d="M 2424.90625 832.101562 L 2464.703125 855.109375 L 2464.886719 611.84375 L 2425.089844 588.839844 Z M 2424.90625 832.101562 " fill-opacity="1" fill-rule="nonzero"/><path fill="#fd6545" d="M 2489.6875 869.410156 L 2529.484375 892.417969 L 2529.667969 652.480469 L 2489.871094 629.476562 Z M 2489.6875 869.410156 " fill-opacity="1" fill-rule="nonzero"/><path fill="#fd6545" d="M 2554.652344 629.476562 L 2554.46875 906.71875 L 2594.265625 929.722656 L 2594.449219 652.480469 Z M 2554.652344 629.476562 " fill-opacity="1" fill-rule="nonzero"/><path fill="#fd6545" d="M 1998.976562 1603.261719 L 1998.976562 1608.273438 L 2032.558594 1588.886719 L 2032.558594 1583.949219 Z M 1998.976562 1603.261719 " fill-opacity="1" fill-rule="nonzero"/><path fill="#fd6545" d="M 2043.75 1368.484375 L 2044.371094 1368.484375 C 2044.996094 1368.300781 2045.617188 1368.082031 2046.273438 1367.933594 L 2048.066406 1367.53125 L 2048.066406 974.527344 L 2043.75 972.042969 Z M 2043.75 1368.484375 " fill-opacity="1" fill-rule="nonzero"/><path fill="#fd6545" d="M 2001.136719 1556.554688 L 2001.136719 947.460938 L 1996.820312 944.976562 L 1996.820312 1474.660156 L 1998.976562 1475.941406 L 1998.976562 1557.796875 Z M 2001.136719 1556.554688 " fill-opacity="1" fill-rule="nonzero"/><path fill="#fd6545" d="M 1423.332031 1604.871094 L 1593.425781 1702.234375 L 1761.726562 1605.015625 L 1593.460938 1506.628906 Z M 1423.332031 1604.871094 " fill-opacity="1" fill-rule="nonzero"/><path fill="#fd6545" d="M 1361.953125 285.957031 L 1362.027344 299.269531 L 1414.226562 269.132812 L 1414.152344 255.78125 Z M 1361.953125 285.957031 " fill-opacity="1" fill-rule="nonzero"/><path fill="#fd6545" d="M 1361.953125 362.179688 L 1362.027344 375.496094 L 1414.226562 345.355469 L 1414.152344 332.007812 Z M 1361.953125 362.179688 " fill-opacity="1" fill-rule="nonzero"/><path fill="#fd6545" d="M 1909.945312 726.253906 L 2041.628906 802.074219 L 2041.628906 614.917969 L 1909.980469 539.097656 Z M 1909.945312 726.253906 " fill-opacity="1" fill-rule="nonzero"/><path fill="#fd6545" d="M 583.183594 1076.027344 C 587.636719 1058.070312 589.902344 1039.84375 589.988281 1021.34375 C 589.621094 928.003906 520.742188 891.902344 436.027344 940.441406 L 436.027344 1011.6875 C 485.1875 983.527344 525.167969 1004.375 525.390625 1058.6875 C 525.34375 1068.457031 524.222656 1078.101562 522.023438 1087.621094 Z M 583.183594 1076.027344 " fill-opacity="1" fill-rule="nonzero"/><path fill="#fd6545" d="M 1311.984375 674.574219 C 1288.613281 688.070312 1269.445312 728.375 1254.558594 773.328125 C 1242.191406 810.816406 1202.761719 832.03125 1192.371094 806.648438 C 1167.753906 745.929688 1132.089844 688.800781 1089.949219 713.125 C 1051.945312 735.070312 1021.546875 806.246094 999.050781 880.96875 C 984.238281 930.164062 932.660156 961.835938 915.433594 932.175781 C 896.59375 899.804688 873.476562 878.773438 847.503906 893.769531 C 778.003906 934.003906 738.351562 1163.878906 730.453125 1210.625 L 953.804688 1081.546875 L 966.789062 1074.015625 L 1217.832031 928.992188 L 1228.804688 922.738281 L 1407.824219 819.265625 C 1407.824219 819.265625 1368.097656 642.128906 1311.984375 674.574219 Z M 1311.984375 674.574219 " fill-opacity="1" fill-rule="nonzero"/><path fill="#0a5f99" d="M 2203.308594 1099.179688 L 2193.394531 1105.394531 L 2484.125 1273.714844 L 2484.125 1507.871094 L 2495.171875 1501.910156 L 2495.246094 1269.035156 Z M 2203.308594 1099.179688 " fill-opacity="1" fill-rule="nonzero"/><path fill="#0a5f99" d="M 1049.53125 2214.804688 L 824.277344 2086.386719 L 824.277344 2317.398438 L 1051.46875 2448.523438 L 1049.96875 2214.585938 Z M 1049.53125 2214.804688 " fill-opacity="1" fill-rule="nonzero"/><path fill="#0a5f99" d="M 1176.496094 1864.410156 L 1251.410156 1907.679688 L 1256.09375 1904.023438 L 1256.09375 1898.683594 L 1196.542969 1863.898438 C 1188.679688 1864.226562 1181.910156 1864.375 1176.496094 1864.410156 Z M 1176.496094 1864.410156 " fill-opacity="1" fill-rule="nonzero"/><path fill="#0a5f99" d="M 1051.46875 1779.664062 L 846.625 1898.683594 L 846.625 1910.386719 L 1051.46875 1792.285156 L 1142.550781 1844.804688 C 1149.28125 1844.292969 1157 1844.476562 1160.839844 1844.585938 L 1160.839844 1843.195312 Z M 1051.46875 1779.664062 " fill-opacity="1" fill-rule="nonzero"/><path fill="#0a5f99" d="M 295.453125 1989.535156 L 295.671875 2399.253906 L 655.757812 2606.820312 L 655.539062 2196.882812 Z M 295.453125 1989.535156 " fill-opacity="1" fill-rule="nonzero"/><path fill="#b5c1f6" d="M 732.355469 1282.054688 L 732.425781 1303.523438 L 1414.226562 910.996094 L 1414.113281 889.527344 Z M 732.355469 1282.054688 " fill-opacity="1" fill-rule="nonzero"/><path fill="#b5c1f6" d="M 732.355469 1381.871094 L 732.425781 1403.339844 L 1414.226562 1010.8125 L 1414.113281 989.339844 Z M 732.355469 1381.871094 " fill-opacity="1" fill-rule="nonzero"/><path fill="#b5c1f6" d="M 732.355469 1481.683594 L 732.425781 1503.15625 L 1414.226562 1110.589844 L 1414.113281 1089.15625 Z M 732.355469 1481.683594 " fill-opacity="1" fill-rule="nonzero"/><path fill="#b5c1f6" d="M 2467.300781 911.546875 L 2360.234375 849.695312 L 2360.125 877.019531 L 2467.191406 938.902344 Z M 2467.300781 911.546875 " fill-opacity="1" fill-rule="nonzero"/><path fill="#b5c1f6" d="M 2360.125 936.636719 L 2467.191406 998.484375 L 2467.300781 971.164062 L 2360.234375 909.3125 Z M 2360.125 936.636719 " fill-opacity="1" fill-rule="nonzero"/><path fill="#b5c1f6" d="M 2360.125 996.253906 L 2467.191406 1058.101562 L 2467.300781 1030.78125 L 2360.234375 968.933594 Z M 2360.125 996.253906 " fill-opacity="1" fill-rule="nonzero"/><path fill="#b5c1f6" d="M 2360.125 1055.871094 L 2467.191406 1117.722656 L 2467.300781 1090.398438 L 2360.234375 1028.515625 Z M 2360.125 1055.871094 " fill-opacity="1" fill-rule="nonzero"/><path fill="#b5c1f6" d="M 2039.582031 1680.546875 L 1998.976562 1657.171875 L 1998.976562 1693.019531 L 1830.714844 1789.761719 L 1761.726562 1749.929688 L 1761.726562 1822.09375 L 1593.460938 1918.835938 L 1457.679688 1840.453125 C 1456.949219 1843.417969 1456.179688 1846.378906 1455.339844 1849.339844 C 1451.902344 1861.097656 1449.460938 1873.058594 1448.023438 1885.222656 L 1619.945312 1984.632812 L 2045.175781 1736.433594 C 2043.898438 1720.597656 2042.398438 1705.085938 2040.714844 1691.261719 C 2040.347656 1687.566406 2039.945312 1683.984375 2039.582031 1680.546875 Z M 2039.582031 1680.546875 " fill-opacity="1" fill-rule="nonzero"/><path fill="#b5c1f6" d="M 295.453125 1989.535156 L 655.539062 2196.882812 L 695.371094 2173.875 L 335.691406 1966.273438 Z M 295.453125 1989.535156 " fill-opacity="1" fill-rule="nonzero"/><path fill="#007bd6" d="M 2191.492188 1338.015625 L 2294.867188 1398 C 2300.0625 1390.683594 2305.621094 1383.039062 2311.328125 1375.46875 L 2218.160156 1320.605469 L 2219.585938 1148.078125 L 2363.414062 1232.570312 L 2363.414062 1406.191406 L 2337.152344 1390.757812 C 2334.628906 1398.253906 2331.371094 1407.398438 2327.496094 1417.054688 L 2484.125 1507.871094 L 2484.125 1273.789062 L 2193.394531 1105.542969 Z M 2460.421875 1460.691406 L 2425.050781 1440.246094 L 2425.050781 1403.484375 L 2460.421875 1423.894531 Z M 2383.605469 1244.308594 L 2460.421875 1288.675781 L 2460.421875 1325.46875 L 2383.605469 1281.066406 Z M 2383.605469 1296.6875 L 2460.421875 1341.089844 L 2460.421875 1347.636719 L 2383.605469 1303.269531 Z M 2383.605469 1321.996094 L 2460.421875 1366.363281 L 2460.421875 1372.945312 L 2383.605469 1328.578125 Z M 2383.605469 1347.304688 L 2460.421875 1391.671875 L 2460.421875 1398.21875 L 2383.605469 1353.851562 Z M 2383.605469 1347.304688 " fill-opacity="1" fill-rule="nonzero"/><path fill="#007bd6" d="M 218.34375 1572.390625 L 218.417969 1593.863281 L 531.058594 1413.179688 L 530.984375 1391.746094 Z M 218.34375 1572.390625 " fill-opacity="1" fill-rule="nonzero"/><path fill="#007bd6" d="M 730.488281 668.390625 L 730.488281 1210.695312 L 736.925781 1206.855469 L 736.925781 664.585938 Z M 730.488281 668.390625 " fill-opacity="1" fill-rule="nonzero"/><path fill="#007bd6" d="M 218.34375 1673.449219 L 218.417969 1694.917969 L 531.058594 1514.238281 L 530.984375 1492.804688 Z M 218.34375 1673.449219 " fill-opacity="1" fill-rule="nonzero"/><path fill="#007bd6" d="M 218.34375 1774.507812 L 218.417969 1795.976562 L 531.058594 1615.292969 L 530.984375 1593.863281 Z M 218.34375 1774.507812 " fill-opacity="1" fill-rule="nonzero"/><path fill="#007bd6" d="M 1268.238281 2231.554688 C 1267.25 2215.753906 1266.703125 2200.285156 1266.519531 2185.324219 C 1266.519531 2177.863281 1266.519531 2170.546875 1266.519531 2163.378906 C 1266.519531 2156.210938 1266.664062 2149.1875 1266.957031 2142.3125 C 1266.957031 2138.910156 1267.175781 2135.507812 1267.324219 2132.179688 C 1268.019531 2115.5 1269.042969 2099.957031 1270.25 2085.949219 L 1270.25 2087.300781 L 1050.078125 2214.585938 L 1051.578125 2448.667969 L 1274.273438 2320.105469 C 1272.847656 2295.015625 1271.128906 2269.15625 1269.1875 2243.660156 C 1268.75 2239.492188 1268.492188 2235.542969 1268.238281 2231.554688 Z M 1268.238281 2231.554688 " fill-opacity="1" fill-rule="nonzero"/><path fill="#007bd6" d="M 1256.238281 1904.023438 C 1260.261719 1900.839844 1264.066406 1897.769531 1267.394531 1894.953125 L 1267.980469 1892.28125 L 1267.980469 1892.0625 C 1267.980469 1891.21875 1268.382812 1890.269531 1268.601562 1889.136719 L 1222.148438 1862.253906 C 1212.929688 1863.058594 1204.222656 1863.605469 1196.542969 1863.898438 L 1256.347656 1898.683594 Z M 1256.238281 1904.023438 " fill-opacity="1" fill-rule="nonzero"/><path fill="#007bd6" d="M 1140.027344 1996.375 C 1134.980469 1996.742188 1130.882812 1996.8125 1131.652344 1996.082031 C 1133.445312 1994.289062 1154.804688 1987.195312 1154.804688 1987.195312 C 1154.804688 1987.195312 1124.921875 1993.851562 1128.210938 1990.851562 C 1130.847656 1988.476562 1144.710938 1983.792969 1150.160156 1981.964844 C 1144.015625 1983.902344 1127.882812 1988.878906 1128.210938 1986.792969 C 1128.542969 1984.707031 1138.125 1980.648438 1149.867188 1973.441406 C 1156.769531 1969.117188 1164.195312 1966.070312 1172.144531 1964.296875 C 1172.144531 1964.296875 1219.003906 1932.808594 1251.558594 1907.679688 L 1176.496094 1864.410156 C 1168.15625 1864.410156 1163.109375 1864.410156 1163.109375 1864.410156 L 1162.851562 1862.035156 C 1156.855469 1866.933594 1144.5625 1868.652344 1139.078125 1865.691406 C 1134.539062 1863.128906 1130.554688 1854.71875 1130.554688 1854.71875 C 1129.273438 1855.121094 1125.617188 1856 1122.285156 1856.691406 L 1152.609375 1874.394531 L 976.8125 1971.941406 L 878.671875 1914.445312 L 1054.46875 1816.898438 L 1118.957031 1854.535156 C 1123.203125 1851.292969 1127.773438 1848.613281 1132.675781 1846.488281 C 1135.878906 1845.488281 1139.160156 1844.929688 1142.515625 1844.804688 L 1051.433594 1792.285156 L 846.589844 1910.386719 L 846.589844 1898.683594 L 1051.433594 1779.664062 L 1160.769531 1843.195312 L 1160.769531 1841.878906 C 1160.769531 1841.878906 1166.949219 1839.757812 1177.484375 1836.429688 L 1051.578125 1763.753906 L 805.804688 1905.632812 L 1051.578125 2047.507812 Z M 1175.730469 1883.613281 L 1222.625 1910.386719 L 1165.851562 1941.988281 L 1118.957031 1915.175781 Z M 1175.730469 1883.613281 " fill-opacity="1" fill-rule="nonzero"/><path fill="#007bd6" d="M 1278.480469 1963.054688 C 1278.480469 1961.921875 1278.480469 1960.75 1278.480469 1959.617188 L 1272.226562 1955.960938 L 1051.507812 2087.632812 L 825.886719 1958.519531 L 801.925781 1972.382812 L 1051.324219 2113.78125 L 1279.027344 1981.121094 C 1278.808594 1975.234375 1278.664062 1969.347656 1278.554688 1963.457031 Z M 1278.480469 1963.054688 " fill-opacity="1" fill-rule="nonzero"/><path fill="#007bd6" d="M 2594.449219 982.429688 L 2487.382812 920.578125 L 2487.273438 947.902344 L 2594.339844 1009.75 Z M 2594.449219 982.429688 " fill-opacity="1" fill-rule="nonzero"/><path fill="#007bd6" d="M 2487.273438 1007.519531 L 2594.339844 1069.367188 L 2594.449219 1042.046875 L 2487.382812 980.160156 Z M 2487.273438 1007.519531 " fill-opacity="1" fill-rule="nonzero"/><path fill="#007bd6" d="M 2487.273438 1067.101562 L 2594.339844 1128.988281 L 2594.449219 1101.628906 L 2487.382812 1039.777344 Z M 2487.273438 1067.101562 " fill-opacity="1" fill-rule="nonzero"/><path fill="#007bd6" d="M 2487.273438 1126.71875 L 2594.339844 1188.566406 L 2594.449219 1161.246094 L 2487.382812 1099.398438 Z M 2487.273438 1126.71875 " fill-opacity="1" fill-rule="nonzero"/><path fill="#007bd6" d="M 2273.722656 548.714844 L 1910.019531 339.285156 L 1909.945312 350.769531 L 2273.6875 560.164062 Z M 2273.722656 548.714844 " fill-opacity="1" fill-rule="nonzero"/><path fill="#007bd6" d="M 2273.722656 608.445312 L 1910.019531 399.011719 L 1909.945312 410.460938 L 2273.6875 619.890625 Z M 2273.722656 608.445312 " fill-opacity="1" fill-rule="nonzero"/><path fill="#007bd6" d="M 2273.722656 668.136719 L 1910.019531 458.742188 L 1909.945312 470.1875 L 2273.6875 679.582031 Z M 2273.722656 668.136719 " fill-opacity="1" fill-rule="nonzero"/><path fill="#007bd6" d="M 218.34375 958.875 L 220.503906 1499.351562 L 653.707031 1249.027344 L 651.515625 708.550781 Z M 589.328125 1037.363281 C 589.328125 1039.011719 589 1040.695312 588.855469 1042.375 C 588.453125 1046.253906 587.976562 1050.167969 587.390625 1054.117188 C 587.136719 1055.871094 586.878906 1057.773438 586.550781 1059.457031 C 585.707031 1064.320312 584.71875 1069.1875 583.585938 1074.085938 C 564.785156 1154.882812 506.257812 1239.480469 436.683594 1279.714844 C 351.566406 1328.980469 282.429688 1292.917969 282.066406 1199.25 C 281.699219 1105.578125 350.320312 989.890625 435.332031 940.769531 L 436.027344 940.402344 C 475.75 917.652344 511.964844 913.484375 539.289062 925.113281 C 541.117188 925.882812 542.949219 926.722656 544.59375 927.636719 C 546.3125 928.515625 547.957031 929.503906 549.566406 930.527344 L 549.859375 930.710938 C 551.398438 931.699219 552.933594 932.757812 554.398438 933.855469 L 554.835938 934.222656 C 556.261719 935.320312 557.652344 936.453125 558.96875 937.625 L 559.589844 938.207031 C 560.835938 939.378906 562.078125 940.550781 563.25 941.867188 C 563.503906 942.121094 563.722656 942.453125 563.980469 942.707031 C 565.113281 943.914062 566.210938 945.121094 567.234375 946.367188 L 568.039062 947.460938 C 569.066406 948.707031 570.015625 949.984375 570.96875 951.339844 C 571.257812 951.742188 571.515625 952.21875 571.808594 952.621094 C 572.6875 953.972656 573.5625 955.289062 574.367188 956.679688 C 574.660156 957.15625 574.917969 957.703125 575.210938 958.214844 C 575.976562 959.605469 576.746094 960.957031 577.476562 962.386719 L 578.355469 964.324219 C 579.015625 965.675781 579.671875 967.066406 580.257812 968.492188 C 580.550781 969.226562 580.804688 969.992188 581.097656 970.761719 C 581.648438 972.152344 582.195312 973.503906 582.707031 974.929688 C 583.222656 976.355469 583.257812 976.757812 583.511719 977.675781 C 583.769531 978.589844 584.390625 980.378906 584.792969 981.769531 C 585.195312 983.160156 585.34375 984 585.597656 985.097656 C 585.855469 986.195312 586.257812 987.660156 586.550781 988.976562 C 586.84375 990.292969 587.023438 991.609375 587.28125 992.960938 L 587.941406 996.621094 C 588.160156 998.15625 588.34375 999.730469 588.523438 1001.265625 C 588.707031 1002.800781 588.816406 1003.421875 588.925781 1004.558594 C 589.148438 1006.496094 589.257812 1008.507812 589.402344 1010.480469 C 589.402344 1011.285156 589.402344 1012.019531 589.402344 1012.785156 C 589.402344 1015.601562 589.621094 1018.457031 589.660156 1021.382812 C 589.988281 1026.613281 589.730469 1031.953125 589.328125 1037.363281 Z M 589.328125 1037.363281 " fill-opacity="1" fill-rule="nonzero"/><path fill="#007bd6" d="M 524.402344 1045.632812 C 524.109375 1043.730469 523.890625 1041.753906 523.523438 1039.960938 C 523.15625 1038.167969 522.792969 1037.292969 522.425781 1035.976562 C 522.058594 1034.660156 521.730469 1033.121094 521.292969 1031.804688 C 520.851562 1030.488281 520.046875 1028.804688 519.425781 1027.34375 C 518.804688 1025.878906 518.695312 1025.40625 518.257812 1024.527344 C 517.414062 1022.882812 516.464844 1021.382812 515.511719 1019.882812 C 515.148438 1019.296875 514.855469 1018.675781 514.453125 1018.089844 C 513.320312 1016.519531 512.101562 1015.019531 510.792969 1013.589844 C 510.5 1013.261719 510.28125 1012.894531 509.988281 1012.601562 C 508.539062 1011.105469 506.988281 1009.714844 505.34375 1008.433594 C 505.164062 1008.296875 504.992188 1008.152344 504.832031 1007.996094 C 503.078125 1006.605469 501.210938 1005.386719 499.234375 1004.335938 L 499.050781 1004.335938 C 482.882812 995.851562 460.609375 997.644531 436.027344 1011.652344 L 435.625 1011.871094 C 386.277344 1040.402344 346.40625 1107.589844 346.628906 1161.832031 C 346.847656 1216.074219 386.863281 1237.105469 436.429688 1208.574219 C 477.289062 1184.984375 511.527344 1134.875 522.023438 1087.472656 C 522.902344 1083.558594 523.558594 1079.644531 524.109375 1075.734375 C 524.328125 1074.160156 524.546875 1072.585938 524.695312 1071.015625 C 524.839844 1069.441406 524.949219 1068.5625 525.058594 1067.355469 C 525.058594 1064.394531 525.425781 1061.46875 525.390625 1058.578125 C 525.351562 1055.691406 525.207031 1051.921875 524.914062 1048.777344 C 524.765625 1047.753906 524.546875 1046.726562 524.402344 1045.632812 Z M 524.402344 1045.632812 " fill-opacity="1" fill-rule="nonzero"/><path fill="#007bd6" d="M 655.574219 2607.003906 L 695.371094 2584.144531 L 695.371094 2173.875 L 655.539062 2196.882812 Z M 655.574219 2607.003906 " fill-opacity="1" fill-rule="nonzero"/><path fill="#8997c6" d="M 1448.171875 1885.113281 C 1443.925781 1922.199219 1450.65625 1949.59375 1449.816406 1974.464844 C 1449.648438 1977.546875 1449.027344 1980.535156 1447.949219 1983.425781 L 1448.171875 1983.425781 C 1449.59375 1987.535156 1450.605469 1991.742188 1451.207031 1996.046875 C 1451.5 1997.765625 1451.753906 1999.703125 1452.011719 2001.789062 C 1452.449219 2005.226562 1452.777344 2009.105469 1453.035156 2013.75 L 1619.066406 2111.113281 L 1619.980469 1984.707031 Z M 1448.171875 1885.113281 " fill-opacity="1" fill-rule="nonzero"/></svg>